<svg xmlns="http://www.w3.org/2000/svg" viewBox="0 0 512 512" width="512" height="512"><path fill="currentColor" d="M256,76 L476,172 L256,268 L36,172 Z M36,184 L36,198 L256,294 L476,198 L476,184 L256,280 Z M132,238 L132,318 C132,362 214,392 256,392 C298,392 380,362 380,318 L380,238 C340,268 288,284 256,284 C224,284 172,268 132,238 Z M256,158 C263.7,158 270,164.3 270,172 C270,179.7 263.7,186 256,186 C248.3,186 242,179.7 242,172 C242,164.3 248.3,158 256,158 Z M442,194 L442,296 L426,304 L422,362 L462,362 L458,304 L442,296 L442,194 Z M244,386 C198,374 144,378 100,396 L100,432 C144,414 198,410 244,422 Z M268,386 C314,374 368,378 412,396 L412,432 C368,414 314,410 268,422 Z M256,418 L268,442 L256,466 L244,442 Z"/></svg>